<svg width="890" height="377" viewBox="0 0 890 377" fill="none" xmlns="http://www.w3.org/2000/svg">
<path d="M407.004 214.36C366.412 214.36 340.452 193.592 337.856 161.732H372.312C373.728 176.836 387.18 186.276 407.712 186.276C427.536 186.276 438.864 177.308 438.864 163.62C438.864 147.572 423.288 144.976 416.208 143.796L387.652 138.84C352.96 132.94 338.8 115.24 338.8 91.64C338.8 59.78 364.996 38.54 404.644 38.54C443.584 38.54 469.544 59.544 470.016 91.168H435.56C434.852 76.064 422.344 66.388 402.992 66.388C385.764 66.388 374.2 74.176 374.2 87.628C374.2 100.136 384.82 105.092 398.272 107.452L427.3 112.172C460.34 117.6 474.5 137.188 474.5 161.024C474.5 193.12 447.596 214.36 407.004 214.36ZM522.395 212H488.647V40.9H522.395V212ZM620.047 40.9C659.459 40.9 684.003 63.556 684.003 97.304C684.003 133.176 658.515 153.708 620.047 153.708L579.219 153.472V212H545.471V40.9H620.047ZM617.451 124.208C637.983 124.208 648.367 113.824 648.367 97.776C648.367 79.84 636.095 71.344 617.451 71.344H579.219V124.208H617.451ZM688.781 126.332C688.781 73.94 724.417 38.54 777.281 38.54C830.145 38.54 866.017 73.94 866.017 126.332C866.017 178.96 830.145 214.36 777.281 214.36C724.417 214.36 688.781 178.96 688.781 126.332ZM724.181 126.332C724.181 160.788 745.657 183.916 777.281 183.916C808.905 183.916 830.381 160.788 830.381 126.332C830.381 92.112 808.905 68.748 777.281 68.748C745.657 68.748 724.181 92.112 724.181 126.332Z" fill="#003462"/>
<path d="M121.6 6.53162L124.315 9.24588L127.029 11.9601C127.029 11.9601 129.843 14.6591 130.829 15.6515C131.176 15.9964 131.523 16.3412 131.881 16.6965L136.149 21.08L139.391 24.2153L140.27 25.088C140.739 25.5615 140.739 25.5615 141.219 26.0445C141.552 26.3771 141.886 26.7098 142.229 27.0525C143.332 28.1533 144.431 29.2571 145.53 30.3611C146.294 31.1261 147.059 31.8909 147.824 32.6556C149.632 34.4642 151.437 36.2748 153.242 38.0863C155.09 39.9409 156.942 41.7924 158.793 43.6437C160.372 45.2228 161.95 46.803 163.527 48.3837C164.285 49.1429 165.043 49.9018 165.802 50.6604C166.86 51.7198 167.917 52.7806 168.974 53.8419C169.289 54.1566 169.604 54.4714 169.928 54.7957C170.215 55.0849 170.503 55.3741 170.799 55.6721C171.049 55.9227 171.299 56.1734 171.556 56.4317C173.02 58.0236 173.351 59.1577 173.266 61.2533C173.029 62.515 172.684 62.9773 171.817 63.9102C171.54 64.2103 171.263 64.5104 170.977 64.8197C169.131 66.7371 167.268 68.6371 165.386 70.5202C164.945 70.9631 164.503 71.406 164.062 71.849C163.144 72.7695 162.225 73.6891 161.306 74.6082C160.126 75.7878 158.95 76.9705 157.774 78.1539C156.866 79.0659 155.957 79.9759 155.048 80.8854C154.613 81.321 154.178 81.7574 153.744 82.1945C153.142 82.8014 152.536 83.4054 151.93 84.0092C151.586 84.3536 150.888 85.0529 150.888 85.0529L143.13 92.789C142.876 93.0417 142.622 93.2943 142.36 93.5546C141.549 94.3606 140.736 95.1635 139.922 95.9664C139.379 96.5048 138.836 97.0434 138.294 97.5822C137.293 98.5764 136.29 99.5694 135.286 100.561C134.122 101.712 132.963 102.869 131.806 104.028C126.513 109.321 126.513 109.321 125.648 110.182C125.162 110.671 124.203 111.662 124.203 111.662L120.949 114.885L115.062 120.746C115.062 120.746 110.301 125.522 109.359 126.285C107.865 127.552 106.592 128.875 105.33 130.37C104.652 131.151 103.964 131.902 103.25 132.65C92.6307 143.782 87.6481 155.745 87.8299 171.185C88.1559 183.726 94.6081 193.524 103.388 202.012C104.106 202.71 104.824 203.409 105.539 204.111C105.979 204.542 106.421 204.972 106.866 205.399C107.379 205.9 107.869 206.424 108.355 206.952L112.416 210.898C112.416 210.898 112.85 211.331 113.074 211.554C113.531 212.011 113.988 212.468 114.443 212.927C115.138 213.627 115.838 214.322 116.538 215.017C116.983 215.462 117.427 215.908 117.872 216.354C118.275 216.758 118.677 217.162 119.092 217.578C120.279 218.899 134 230.5 134 230.5C134 230.5 72.8882 223.854 40.8429 210.898C8.79765 197.942 3.16793 171.185 3.16793 171.185C3.16793 171.185 -3.72507 148.724 2.82442 131.387C3.16794 130.478 3.05114 130.787 3.16794 130.478C7.43178 119.332 14.4446 108.907 21.9328 99.6849C22.2608 99.274 22.5889 98.8631 22.9269 98.4398C25.1115 95.7296 27.4024 93.1342 29.7498 90.565C30.2781 89.9813 30.2781 89.9813 30.8169 89.3858C33.6255 86.2952 36.5162 83.306 39.4771 80.3611C39.9325 79.9065 40.3878 79.4518 40.8431 78.997C42.0249 77.8167 43.2081 76.6378 44.3916 75.4592C45.5968 74.2584 46.8008 73.0564 48.0049 71.8545C50.1197 69.7438 52.2355 67.6343 54.3521 65.5256C55.4171 64.4637 56.4805 63.4003 57.5438 62.3367C73.6122 46.2683 89.6806 30.1999 105.749 14.1315L106.883 12.9432L110.825 9.19159C111.302 8.78769 111.302 8.78769 111.788 8.37562C112.088 8.12538 112.388 7.87514 112.698 7.61732C113.083 7.28591 113.468 6.9545 113.865 6.61305C116.575 4.63561 119.355 4.32531 121.6 6.53162Z" fill="#00AAF9"/>
<path d="M88.8066 305.176C85.6824 302.052 85.6824 296.986 88.8066 293.862L156.29 226.379C159.227 223.441 163.989 223.441 166.926 226.379C203.64 263.092 203.64 322.616 166.926 359.33L160.6 365.656C157.476 368.78 152.411 368.78 149.287 365.656L88.8066 305.176Z" fill="#00BFD7"/>
<path d="M123.926 162.693C120.802 159.569 120.802 154.504 123.926 151.38L191.222 84.083C193.361 81.944 196.829 81.944 198.968 84.083L245.556 130.67C286.67 171.785 286.67 238.444 245.556 279.559C244.24 280.875 242.107 280.875 240.791 279.559L123.926 162.693Z" fill="#003462"/>
<path d="M368.018 257.359C367.82 255.499 366.982 254.05 365.504 253.013C364.041 251.976 362.138 251.457 359.794 251.457C358.146 251.457 356.733 251.706 355.554 252.203C354.375 252.7 353.473 253.375 352.848 254.227C352.223 255.08 351.903 256.053 351.889 257.146C351.889 258.055 352.095 258.844 352.507 259.511C352.933 260.179 353.509 260.747 354.233 261.216C354.957 261.67 355.76 262.054 356.641 262.366C357.521 262.679 358.409 262.942 359.304 263.155L363.395 264.178C365.043 264.561 366.626 265.08 368.146 265.733C369.68 266.386 371.051 267.21 372.259 268.205C373.48 269.199 374.446 270.399 375.156 271.805C375.866 273.212 376.222 274.859 376.222 276.749C376.222 279.305 375.568 281.557 374.261 283.503C372.955 285.435 371.065 286.947 368.594 288.041C366.136 289.121 363.161 289.661 359.666 289.661C356.271 289.661 353.324 289.135 350.824 288.084C348.338 287.033 346.392 285.499 344.986 283.482C343.594 281.464 342.841 279.007 342.727 276.109H350.504C350.618 277.629 351.087 278.893 351.911 279.902C352.734 280.911 353.807 281.663 355.128 282.161C356.463 282.658 357.955 282.906 359.602 282.906C361.321 282.906 362.827 282.651 364.119 282.139C365.426 281.614 366.449 280.889 367.188 279.966C367.926 279.028 368.303 277.935 368.317 276.685C368.303 275.548 367.969 274.611 367.315 273.872C366.662 273.119 365.746 272.494 364.567 271.997C363.402 271.486 362.038 271.031 360.476 270.634L355.511 269.355C351.918 268.432 349.077 267.033 346.989 265.158C344.915 263.268 343.878 260.761 343.878 257.636C343.878 255.065 344.574 252.814 345.966 250.882C347.372 248.95 349.283 247.452 351.697 246.386C354.112 245.307 356.847 244.767 359.901 244.767C362.997 244.767 365.71 245.307 368.04 246.386C370.384 247.452 372.223 248.936 373.558 250.839C374.893 252.729 375.582 254.902 375.625 257.359H368.018ZM379.328 289V256.273H387.041V289H379.328ZM383.206 251.628C381.984 251.628 380.933 251.223 380.052 250.413C379.172 249.589 378.731 248.602 378.731 247.452C378.731 246.287 379.172 245.3 380.052 244.49C380.933 243.666 381.984 243.254 383.206 243.254C384.442 243.254 385.493 243.666 386.359 244.49C387.24 245.3 387.68 246.287 387.68 247.452C387.68 248.602 387.24 249.589 386.359 250.413C385.493 251.223 384.442 251.628 383.206 251.628ZM417.239 264.923L410.208 265.69C410.009 264.98 409.661 264.312 409.164 263.688C408.681 263.062 408.027 262.558 407.203 262.175C406.38 261.791 405.371 261.599 404.178 261.599C402.573 261.599 401.223 261.947 400.13 262.643C399.05 263.339 398.517 264.241 398.532 265.349C398.517 266.301 398.865 267.075 399.576 267.672C400.3 268.268 401.493 268.759 403.155 269.142L408.737 270.335C411.834 271.003 414.135 272.061 415.641 273.51C417.161 274.959 417.928 276.855 417.942 279.199C417.928 281.259 417.324 283.077 416.131 284.653C414.952 286.216 413.311 287.437 411.209 288.318C409.107 289.199 406.692 289.639 403.965 289.639C399.959 289.639 396.735 288.801 394.291 287.125C391.848 285.435 390.392 283.084 389.924 280.072L397.445 279.348C397.786 280.825 398.51 281.94 399.618 282.693C400.726 283.446 402.168 283.822 403.943 283.822C405.776 283.822 407.246 283.446 408.354 282.693C409.476 281.94 410.037 281.01 410.037 279.902C410.037 278.964 409.675 278.19 408.951 277.58C408.24 276.969 407.132 276.5 405.627 276.173L400.044 275.001C396.905 274.348 394.583 273.247 393.077 271.699C391.571 270.136 390.826 268.162 390.84 265.776C390.826 263.759 391.372 262.011 392.48 260.534C393.603 259.043 395.158 257.892 397.147 257.082C399.149 256.259 401.458 255.847 404.071 255.847C407.907 255.847 410.925 256.663 413.127 258.297C415.343 259.93 416.713 262.139 417.239 264.923ZM437.044 256.273V262.239H418.231V256.273H437.044ZM422.875 248.432H430.588V279.156C430.588 280.193 430.745 280.989 431.057 281.543C431.384 282.082 431.81 282.452 432.336 282.651C432.861 282.849 433.444 282.949 434.083 282.949C434.566 282.949 435.006 282.913 435.404 282.842C435.816 282.771 436.128 282.707 436.341 282.651L437.641 288.68C437.229 288.822 436.64 288.979 435.873 289.149C435.12 289.32 434.196 289.419 433.103 289.447C431.171 289.504 429.431 289.213 427.883 288.574C426.334 287.92 425.106 286.912 424.196 285.548C423.302 284.185 422.861 282.48 422.875 280.435V248.432ZM454.032 289.639C450.751 289.639 447.917 288.957 445.531 287.594C443.159 286.216 441.333 284.27 440.055 281.756C438.776 279.227 438.137 276.251 438.137 272.828C438.137 269.462 438.776 266.507 440.055 263.964C441.348 261.408 443.151 259.419 445.467 257.999C447.782 256.564 450.502 255.847 453.627 255.847C455.644 255.847 457.548 256.173 459.338 256.827C461.142 257.466 462.732 258.46 464.11 259.81C465.502 261.159 466.596 262.878 467.392 264.966C468.187 267.04 468.585 269.511 468.585 272.381V274.746H441.759V269.547H461.191C461.177 268.07 460.857 266.756 460.232 265.605C459.607 264.44 458.734 263.524 457.612 262.857C456.504 262.189 455.211 261.855 453.734 261.855C452.157 261.855 450.772 262.239 449.579 263.006C448.386 263.759 447.455 264.753 446.788 265.989C446.134 267.21 445.801 268.553 445.786 270.016V274.554C445.786 276.457 446.134 278.091 446.83 279.455C447.526 280.804 448.5 281.841 449.75 282.565C451 283.276 452.463 283.631 454.139 283.631C455.261 283.631 456.276 283.474 457.186 283.162C458.095 282.835 458.883 282.359 459.551 281.734C460.218 281.109 460.723 280.335 461.063 279.412L468.265 280.222C467.811 282.125 466.944 283.787 465.666 285.207C464.401 286.614 462.782 287.707 460.808 288.489C458.833 289.256 456.575 289.639 454.032 289.639ZM471.51 289V256.273H478.882V261.834H479.266C479.947 259.959 481.077 258.496 482.653 257.445C484.23 256.379 486.112 255.847 488.3 255.847C490.516 255.847 492.384 256.386 493.903 257.466C495.438 258.531 496.517 259.987 497.142 261.834H497.483C498.207 260.016 499.429 258.567 501.148 257.487C502.881 256.393 504.933 255.847 507.305 255.847C510.317 255.847 512.774 256.798 514.678 258.702C516.581 260.605 517.533 263.382 517.533 267.033V289H509.798V268.226C509.798 266.195 509.259 264.71 508.179 263.773C507.099 262.821 505.778 262.345 504.216 262.345C502.355 262.345 500.899 262.928 499.848 264.092C498.811 265.243 498.293 266.741 498.293 268.588V289H490.729V267.906C490.729 266.216 490.217 264.866 489.195 263.858C488.186 262.849 486.865 262.345 485.232 262.345C484.124 262.345 483.115 262.629 482.206 263.197C481.297 263.751 480.572 264.54 480.033 265.562C479.493 266.571 479.223 267.75 479.223 269.099V289H471.51ZM541.286 245.364V289H533.381V245.364H541.286ZM553.618 269.824V289H545.905V256.273H553.277V261.834H553.661C554.414 260.001 555.614 258.545 557.262 257.466C558.924 256.386 560.976 255.847 563.419 255.847C565.678 255.847 567.645 256.33 569.321 257.295C571.012 258.261 572.319 259.661 573.242 261.493C574.179 263.325 574.641 265.548 574.627 268.162V289H566.914V269.355C566.914 267.168 566.346 265.456 565.209 264.22C564.087 262.984 562.532 262.366 560.543 262.366C559.194 262.366 557.993 262.665 556.942 263.261C555.905 263.844 555.088 264.689 554.492 265.797C553.91 266.905 553.618 268.247 553.618 269.824ZM595.444 256.273V262.239H576.098V256.273H595.444ZM580.935 289V253.183C580.935 250.982 581.389 249.149 582.298 247.686C583.221 246.223 584.457 245.129 586.006 244.405C587.554 243.68 589.273 243.318 591.162 243.318C592.497 243.318 593.683 243.425 594.72 243.638C595.757 243.851 596.524 244.043 597.021 244.213L595.487 250.179C595.16 250.08 594.748 249.98 594.251 249.881C593.754 249.767 593.2 249.71 592.589 249.71C591.155 249.71 590.139 250.058 589.542 250.754C588.96 251.436 588.669 252.416 588.669 253.695V289H580.935ZM610.93 289.639C607.734 289.639 604.964 288.936 602.62 287.53C600.277 286.124 598.458 284.156 597.166 281.628C595.887 279.099 595.248 276.145 595.248 272.764C595.248 269.384 595.887 266.422 597.166 263.879C598.458 261.337 600.277 259.362 602.62 257.956C604.964 256.55 607.734 255.847 610.93 255.847C614.126 255.847 616.896 256.55 619.24 257.956C621.583 259.362 623.395 261.337 624.673 263.879C625.966 266.422 626.612 269.384 626.612 272.764C626.612 276.145 625.966 279.099 624.673 281.628C623.395 284.156 621.583 286.124 619.24 287.53C616.896 288.936 614.126 289.639 610.93 289.639ZM610.973 283.46C612.706 283.46 614.154 282.984 615.319 282.033C616.484 281.067 617.35 279.774 617.919 278.155C618.501 276.536 618.792 274.732 618.792 272.743C618.792 270.74 618.501 268.929 617.919 267.31C617.35 265.676 616.484 264.376 615.319 263.411C614.154 262.445 612.706 261.962 610.973 261.962C609.197 261.962 607.72 262.445 606.541 263.411C605.376 264.376 604.502 265.676 603.92 267.31C603.352 268.929 603.068 270.74 603.068 272.743C603.068 274.732 603.352 276.536 603.92 278.155C604.502 279.774 605.376 281.067 606.541 282.033C607.72 282.984 609.197 283.46 610.973 283.46ZM629.558 289V256.273H637.037V261.727H637.378C637.975 259.838 638.997 258.382 640.446 257.359C641.909 256.322 643.578 255.804 645.453 255.804C645.879 255.804 646.355 255.825 646.881 255.868C647.421 255.896 647.868 255.946 648.223 256.017V263.112C647.896 262.999 647.378 262.899 646.668 262.814C645.972 262.714 645.297 262.665 644.644 262.665C643.237 262.665 641.973 262.97 640.851 263.581C639.743 264.178 638.869 265.009 638.23 266.074C637.591 267.139 637.271 268.368 637.271 269.76V289H629.558ZM649.747 289V256.273H657.12V261.834H657.503C658.185 259.959 659.314 258.496 660.891 257.445C662.468 256.379 664.35 255.847 666.537 255.847C668.753 255.847 670.621 256.386 672.141 257.466C673.675 258.531 674.755 259.987 675.38 261.834H675.72C676.445 260.016 677.666 258.567 679.385 257.487C681.118 256.393 683.171 255.847 685.543 255.847C688.554 255.847 691.012 256.798 692.915 258.702C694.818 260.605 695.77 263.382 695.77 267.033V289H688.036V268.226C688.036 266.195 687.496 264.71 686.416 263.773C685.337 262.821 684.016 262.345 682.453 262.345C680.593 262.345 679.137 262.928 678.086 264.092C677.049 265.243 676.53 266.741 676.53 268.588V289H668.966V267.906C668.966 266.216 668.455 264.866 667.432 263.858C666.424 262.849 665.103 262.345 663.469 262.345C662.361 262.345 661.353 262.629 660.443 263.197C659.534 263.751 658.81 264.54 658.27 265.562C657.73 266.571 657.46 267.75 657.46 269.099V289H649.747ZM709.413 289.661C707.339 289.661 705.471 289.291 703.809 288.553C702.161 287.8 700.854 286.692 699.889 285.229C698.937 283.766 698.461 281.962 698.461 279.817C698.461 277.97 698.802 276.443 699.484 275.236C700.166 274.028 701.096 273.062 702.275 272.338C703.454 271.614 704.782 271.067 706.259 270.697C707.751 270.314 709.292 270.037 710.883 269.866C712.801 269.668 714.356 269.49 715.549 269.334C716.742 269.163 717.609 268.908 718.149 268.567C718.702 268.212 718.979 267.665 718.979 266.926V266.798C718.979 265.193 718.504 263.95 717.552 263.07C716.6 262.189 715.229 261.749 713.44 261.749C711.551 261.749 710.052 262.161 708.944 262.984C707.85 263.808 707.112 264.781 706.728 265.903L699.526 264.881C700.095 262.892 701.032 261.23 702.339 259.895C703.646 258.545 705.244 257.537 707.133 256.869C709.022 256.188 711.11 255.847 713.397 255.847C714.974 255.847 716.543 256.031 718.106 256.401C719.668 256.77 721.096 257.381 722.389 258.233C723.681 259.071 724.718 260.214 725.499 261.663C726.295 263.112 726.693 264.923 726.693 267.097V289H719.278V284.504H719.022C718.553 285.413 717.893 286.266 717.041 287.061C716.202 287.842 715.144 288.474 713.866 288.957C712.602 289.426 711.117 289.661 709.413 289.661ZM711.416 283.993C712.964 283.993 714.306 283.687 715.443 283.077C716.579 282.452 717.452 281.628 718.063 280.605C718.688 279.582 719.001 278.467 719.001 277.26V273.403C718.759 273.602 718.347 273.787 717.765 273.957C717.197 274.128 716.558 274.277 715.847 274.405C715.137 274.533 714.434 274.646 713.738 274.746C713.042 274.845 712.438 274.93 711.927 275.001C710.776 275.158 709.747 275.413 708.837 275.768C707.928 276.124 707.211 276.621 706.685 277.26C706.16 277.885 705.897 278.695 705.897 279.689C705.897 281.109 706.416 282.182 707.452 282.906C708.489 283.631 709.81 283.993 711.416 283.993ZM756.715 264.923L749.683 265.69C749.485 264.98 749.137 264.312 748.639 263.688C748.156 263.062 747.503 262.558 746.679 262.175C745.855 261.791 744.847 261.599 743.654 261.599C742.049 261.599 740.699 261.947 739.605 262.643C738.526 263.339 737.993 264.241 738.007 265.349C737.993 266.301 738.341 267.075 739.051 267.672C739.776 268.268 740.969 268.759 742.631 269.142L748.213 270.335C751.31 271.003 753.611 272.061 755.117 273.51C756.637 274.959 757.404 276.855 757.418 279.199C757.404 281.259 756.8 283.077 755.607 284.653C754.428 286.216 752.787 287.437 750.685 288.318C748.583 289.199 746.168 289.639 743.441 289.639C739.435 289.639 736.21 288.801 733.767 287.125C731.324 285.435 729.868 283.084 729.399 280.072L736.921 279.348C737.262 280.825 737.986 281.94 739.094 282.693C740.202 283.446 741.644 283.822 743.419 283.822C745.252 283.822 746.722 283.446 747.83 282.693C748.952 281.94 749.513 281.01 749.513 279.902C749.513 278.964 749.151 278.19 748.426 277.58C747.716 276.969 746.608 276.5 745.102 276.173L739.52 275.001C736.381 274.348 734.058 273.247 732.553 271.699C731.047 270.136 730.301 268.162 730.316 265.776C730.301 263.759 730.848 262.011 731.956 260.534C733.078 259.043 734.634 257.892 736.622 257.082C738.625 256.259 740.933 255.847 743.547 255.847C747.382 255.847 750.401 256.663 752.602 258.297C754.818 259.93 756.189 262.139 756.715 264.923ZM760.178 289V256.273H767.891V289H760.178ZM764.056 251.628C762.834 251.628 761.783 251.223 760.902 250.413C760.022 249.589 759.581 248.602 759.581 247.452C759.581 246.287 760.022 245.3 760.902 244.49C761.783 243.666 762.834 243.254 764.056 243.254C765.292 243.254 766.343 243.666 767.209 244.49C768.09 245.3 768.53 246.287 768.53 247.452C768.53 248.602 768.09 249.589 767.209 250.413C766.343 251.223 765.292 251.628 764.056 251.628ZM344.304 362V318.364H360.668C364.02 318.364 366.832 318.989 369.105 320.239C371.392 321.489 373.118 323.207 374.283 325.395C375.462 327.568 376.051 330.04 376.051 332.81C376.051 335.608 375.462 338.094 374.283 340.267C373.104 342.44 371.364 344.152 369.062 345.402C366.761 346.638 363.928 347.256 360.561 347.256H349.716V340.757H359.496C361.456 340.757 363.061 340.416 364.311 339.734C365.561 339.053 366.484 338.115 367.081 336.922C367.692 335.729 367.997 334.358 367.997 332.81C367.997 331.261 367.692 329.898 367.081 328.719C366.484 327.54 365.554 326.624 364.29 325.97C363.04 325.303 361.428 324.969 359.453 324.969H352.209V362H344.304ZM392.996 362.639C389.715 362.639 386.881 361.957 384.495 360.594C382.123 359.216 380.297 357.27 379.019 354.756C377.741 352.227 377.101 349.251 377.101 345.828C377.101 342.462 377.741 339.507 379.019 336.964C380.312 334.408 382.116 332.419 384.431 330.999C386.746 329.564 389.466 328.847 392.591 328.847C394.608 328.847 396.512 329.173 398.302 329.827C400.106 330.466 401.697 331.46 403.074 332.81C404.466 334.159 405.56 335.878 406.356 337.966C407.151 340.04 407.549 342.511 407.549 345.381V347.746H380.724V342.547H400.155C400.141 341.07 399.822 339.756 399.197 338.605C398.572 337.44 397.698 336.524 396.576 335.857C395.468 335.189 394.175 334.855 392.698 334.855C391.121 334.855 389.736 335.239 388.543 336.006C387.35 336.759 386.42 337.753 385.752 338.989C385.099 340.21 384.765 341.553 384.75 343.016V347.554C384.75 349.457 385.099 351.091 385.795 352.455C386.491 353.804 387.464 354.841 388.714 355.565C389.964 356.276 391.427 356.631 393.103 356.631C394.225 356.631 395.241 356.474 396.15 356.162C397.059 355.835 397.847 355.359 398.515 354.734C399.182 354.109 399.687 353.335 400.027 352.412L407.229 353.222C406.775 355.125 405.908 356.787 404.63 358.207C403.366 359.614 401.746 360.707 399.772 361.489C397.797 362.256 395.539 362.639 392.996 362.639ZM410.474 362V329.273H417.953V334.727H418.294C418.89 332.838 419.913 331.382 421.362 330.359C422.825 329.322 424.494 328.804 426.369 328.804C426.795 328.804 427.271 328.825 427.796 328.868C428.336 328.896 428.784 328.946 429.139 329.017V336.112C428.812 335.999 428.294 335.899 427.583 335.814C426.887 335.714 426.213 335.665 425.559 335.665C424.153 335.665 422.889 335.97 421.767 336.581C420.659 337.178 419.785 338.009 419.146 339.074C418.507 340.139 418.187 341.368 418.187 342.76V362H410.474ZM456.53 337.923L449.498 338.69C449.299 337.98 448.951 337.312 448.454 336.688C447.971 336.062 447.318 335.558 446.494 335.175C445.67 334.791 444.662 334.599 443.468 334.599C441.863 334.599 440.514 334.947 439.42 335.643C438.341 336.339 437.808 337.241 437.822 338.349C437.808 339.301 438.156 340.075 438.866 340.672C439.591 341.268 440.784 341.759 442.446 342.142L448.028 343.335C451.125 344.003 453.426 345.061 454.932 346.51C456.451 347.959 457.218 349.855 457.233 352.199C457.218 354.259 456.615 356.077 455.422 357.653C454.243 359.216 452.602 360.437 450.5 361.318C448.397 362.199 445.983 362.639 443.255 362.639C439.25 362.639 436.025 361.801 433.582 360.125C431.139 358.435 429.683 356.084 429.214 353.072L436.736 352.348C437.076 353.825 437.801 354.94 438.909 355.693C440.017 356.446 441.459 356.822 443.234 356.822C445.066 356.822 446.537 356.446 447.645 355.693C448.767 354.94 449.328 354.01 449.328 352.902C449.328 351.964 448.966 351.19 448.241 350.58C447.531 349.969 446.423 349.5 444.917 349.173L439.335 348.001C436.196 347.348 433.873 346.247 432.368 344.699C430.862 343.136 430.116 341.162 430.13 338.776C430.116 336.759 430.663 335.011 431.771 333.534C432.893 332.043 434.449 330.892 436.437 330.082C438.44 329.259 440.748 328.847 443.362 328.847C447.197 328.847 450.216 329.663 452.417 331.297C454.633 332.93 456.004 335.139 456.53 337.923ZM480.852 348.236V329.273H488.565V362H481.087V356.183H480.746C480.007 358.016 478.792 359.514 477.102 360.679C475.426 361.844 473.359 362.426 470.902 362.426C468.757 362.426 466.861 361.95 465.213 360.999C463.579 360.033 462.301 358.634 461.378 356.801C460.454 354.955 459.993 352.724 459.993 350.111V329.273H467.706V348.918C467.706 350.991 468.274 352.639 469.41 353.861C470.547 355.082 472.038 355.693 473.885 355.693C475.021 355.693 476.122 355.416 477.187 354.862C478.253 354.308 479.126 353.484 479.808 352.391C480.504 351.283 480.852 349.898 480.852 348.236ZM492.897 362V329.273H500.375V334.727H500.716C501.313 332.838 502.336 331.382 503.784 330.359C505.248 329.322 506.917 328.804 508.792 328.804C509.218 328.804 509.694 328.825 510.219 328.868C510.759 328.896 511.206 328.946 511.561 329.017V336.112C511.235 335.999 510.716 335.899 510.006 335.814C509.31 335.714 508.635 335.665 507.982 335.665C506.576 335.665 505.311 335.97 504.189 336.581C503.081 337.178 502.208 338.009 501.569 339.074C500.929 340.139 500.61 341.368 500.61 342.76V362H492.897ZM521.917 362.661C519.844 362.661 517.976 362.291 516.314 361.553C514.666 360.8 513.359 359.692 512.393 358.229C511.442 356.766 510.966 354.962 510.966 352.817C510.966 350.97 511.307 349.443 511.988 348.236C512.67 347.028 513.601 346.062 514.78 345.338C515.959 344.614 517.287 344.067 518.764 343.697C520.255 343.314 521.797 343.037 523.388 342.866C525.305 342.668 526.861 342.49 528.054 342.334C529.247 342.163 530.113 341.908 530.653 341.567C531.207 341.212 531.484 340.665 531.484 339.926V339.798C531.484 338.193 531.008 336.95 530.057 336.07C529.105 335.189 527.734 334.749 525.944 334.749C524.055 334.749 522.557 335.161 521.449 335.984C520.355 336.808 519.616 337.781 519.233 338.903L512.031 337.881C512.599 335.892 513.537 334.23 514.844 332.895C516.15 331.545 517.748 330.537 519.638 329.869C521.527 329.188 523.615 328.847 525.902 328.847C527.478 328.847 529.048 329.031 530.611 329.401C532.173 329.77 533.601 330.381 534.893 331.233C536.186 332.071 537.223 333.214 538.004 334.663C538.799 336.112 539.197 337.923 539.197 340.097V362H531.782V357.504H531.527C531.058 358.413 530.398 359.266 529.545 360.061C528.707 360.842 527.649 361.474 526.371 361.957C525.106 362.426 523.622 362.661 521.917 362.661ZM523.92 356.993C525.469 356.993 526.811 356.687 527.947 356.077C529.084 355.452 529.957 354.628 530.568 353.605C531.193 352.582 531.505 351.467 531.505 350.26V346.403C531.264 346.602 530.852 346.787 530.27 346.957C529.701 347.128 529.062 347.277 528.352 347.405C527.642 347.533 526.939 347.646 526.243 347.746C525.547 347.845 524.943 347.93 524.432 348.001C523.281 348.158 522.251 348.413 521.342 348.768C520.433 349.124 519.716 349.621 519.19 350.26C518.665 350.885 518.402 351.695 518.402 352.689C518.402 354.109 518.92 355.182 519.957 355.906C520.994 356.631 522.315 356.993 523.92 356.993ZM559.695 329.273V335.239H540.881V329.273H559.695ZM545.526 321.432H553.239V352.156C553.239 353.193 553.396 353.989 553.708 354.543C554.035 355.082 554.461 355.452 554.986 355.651C555.512 355.849 556.094 355.949 556.734 355.949C557.217 355.949 557.657 355.913 558.055 355.842C558.467 355.771 558.779 355.707 558.992 355.651L560.292 361.68C559.88 361.822 559.29 361.979 558.523 362.149C557.771 362.32 556.847 362.419 555.753 362.447C553.822 362.504 552.082 362.213 550.533 361.574C548.985 360.92 547.756 359.912 546.847 358.548C545.952 357.185 545.512 355.48 545.526 353.435V321.432ZM571.963 362.661C569.89 362.661 568.022 362.291 566.36 361.553C564.712 360.8 563.405 359.692 562.439 358.229C561.488 356.766 561.012 354.962 561.012 352.817C561.012 350.97 561.353 349.443 562.035 348.236C562.716 347.028 563.647 346.062 564.826 345.338C566.005 344.614 567.333 344.067 568.81 343.697C570.302 343.314 571.843 343.037 573.434 342.866C575.351 342.668 576.907 342.49 578.1 342.334C579.293 342.163 580.16 341.908 580.699 341.567C581.253 341.212 581.53 340.665 581.53 339.926V339.798C581.53 338.193 581.054 336.95 580.103 336.07C579.151 335.189 577.78 334.749 575.99 334.749C574.101 334.749 572.603 335.161 571.495 335.984C570.401 336.808 569.662 337.781 569.279 338.903L562.077 337.881C562.645 335.892 563.583 334.23 564.89 332.895C566.196 331.545 567.794 330.537 569.684 329.869C571.573 329.188 573.661 328.847 575.948 328.847C577.525 328.847 579.094 329.031 580.657 329.401C582.219 329.77 583.647 330.381 584.939 331.233C586.232 332.071 587.269 333.214 588.05 334.663C588.846 336.112 589.243 337.923 589.243 340.097V362H581.829V357.504H581.573C581.104 358.413 580.444 359.266 579.591 360.061C578.753 360.842 577.695 361.474 576.417 361.957C575.152 362.426 573.668 362.661 571.963 362.661ZM573.966 356.993C575.515 356.993 576.857 356.687 577.993 356.077C579.13 355.452 580.003 354.628 580.614 353.605C581.239 352.582 581.552 351.467 581.552 350.26V346.403C581.31 346.602 580.898 346.787 580.316 346.957C579.748 347.128 579.108 347.277 578.398 347.405C577.688 347.533 576.985 347.646 576.289 347.746C575.593 347.845 574.989 347.93 574.478 348.001C573.327 348.158 572.297 348.413 571.388 348.768C570.479 349.124 569.762 349.621 569.236 350.26C568.711 350.885 568.448 351.695 568.448 352.689C568.448 354.109 568.966 355.182 570.003 355.906C571.04 356.631 572.361 356.993 573.966 356.993ZM601.112 342.824V362H593.399V329.273H600.771V334.834H601.155C601.908 333.001 603.108 331.545 604.756 330.466C606.417 329.386 608.47 328.847 610.913 328.847C613.172 328.847 615.139 329.33 616.815 330.295C618.506 331.261 619.812 332.661 620.736 334.493C621.673 336.325 622.135 338.548 622.121 341.162V362H614.408V342.355C614.408 340.168 613.839 338.456 612.703 337.22C611.581 335.984 610.025 335.366 608.037 335.366C606.687 335.366 605.487 335.665 604.436 336.261C603.399 336.844 602.582 337.689 601.986 338.797C601.403 339.905 601.112 341.247 601.112 342.824ZM676.977 340.182C676.977 344.884 676.096 348.911 674.335 352.263C672.587 355.601 670.201 358.158 667.176 359.933C664.164 361.709 660.748 362.597 656.927 362.597C653.106 362.597 649.683 361.709 646.657 359.933C643.646 358.143 641.259 355.58 639.498 352.241C637.751 348.889 636.877 344.869 636.877 340.182C636.877 335.48 637.751 331.46 639.498 328.122C641.259 324.77 643.646 322.206 646.657 320.43C649.683 318.655 653.106 317.767 656.927 317.767C660.748 317.767 664.164 318.655 667.176 320.43C670.201 322.206 672.587 324.77 674.335 328.122C676.096 331.46 676.977 335.48 676.977 340.182ZM669.029 340.182C669.029 336.872 668.511 334.081 667.474 331.808C666.451 329.521 665.031 327.795 663.212 326.631C661.394 325.452 659.299 324.862 656.927 324.862C654.555 324.862 652.46 325.452 650.641 326.631C648.823 327.795 647.396 329.521 646.359 331.808C645.336 334.081 644.825 336.872 644.825 340.182C644.825 343.491 645.336 346.29 646.359 348.577C647.396 350.849 648.823 352.575 650.641 353.754C652.46 354.919 654.555 355.501 656.927 355.501C659.299 355.501 661.394 354.919 663.212 353.754C665.031 352.575 666.451 350.849 667.474 348.577C668.511 346.29 669.029 343.491 669.029 340.182ZM688.222 342.824V362H680.509V329.273H687.881V334.834H688.265C689.018 333.001 690.218 331.545 691.866 330.466C693.528 329.386 695.58 328.847 698.023 328.847C700.282 328.847 702.249 329.33 703.925 330.295C705.616 331.261 706.923 332.661 707.846 334.493C708.783 336.325 709.245 338.548 709.231 341.162V362H701.518V342.355C701.518 340.168 700.949 338.456 699.813 337.22C698.691 335.984 697.136 335.366 695.147 335.366C693.798 335.366 692.597 335.665 691.546 336.261C690.509 336.844 689.692 337.689 689.096 338.797C688.513 339.905 688.222 341.247 688.222 342.824ZM721.185 318.364V362H713.472V318.364H721.185ZM725.516 362V329.273H733.229V362H725.516ZM729.394 324.628C728.172 324.628 727.121 324.223 726.241 323.413C725.36 322.589 724.92 321.602 724.92 320.452C724.92 319.287 725.36 318.3 726.241 317.49C727.121 316.666 728.172 316.254 729.394 316.254C730.63 316.254 731.681 316.666 732.547 317.49C733.428 318.3 733.868 319.287 733.868 320.452C733.868 321.602 733.428 322.589 732.547 323.413C731.681 324.223 730.63 324.628 729.394 324.628ZM745.274 342.824V362H737.561V329.273H744.933V334.834H745.316C746.069 333.001 747.27 331.545 748.917 330.466C750.579 329.386 752.632 328.847 755.075 328.847C757.333 328.847 759.301 329.33 760.977 330.295C762.667 331.261 763.974 332.661 764.897 334.493C765.835 336.325 766.297 338.548 766.282 341.162V362H758.569V342.355C758.569 340.168 758.001 338.456 756.865 337.22C755.743 335.984 754.187 335.366 752.199 335.366C750.849 335.366 749.649 335.665 748.598 336.261C747.561 336.844 746.744 337.689 746.147 338.797C745.565 339.905 745.274 341.247 745.274 342.824ZM785.012 362.639C781.731 362.639 778.897 361.957 776.51 360.594C774.138 359.216 772.313 357.27 771.035 354.756C769.756 352.227 769.117 349.251 769.117 345.828C769.117 342.462 769.756 339.507 771.035 336.964C772.327 334.408 774.131 332.419 776.447 330.999C778.762 329.564 781.482 328.847 784.607 328.847C786.624 328.847 788.527 329.173 790.317 329.827C792.121 330.466 793.712 331.46 795.09 332.81C796.482 334.159 797.576 335.878 798.371 337.966C799.167 340.04 799.564 342.511 799.564 345.381V347.746H772.739V342.547H792.171C792.157 341.07 791.837 339.756 791.212 338.605C790.587 337.44 789.714 336.524 788.591 335.857C787.483 335.189 786.191 334.855 784.714 334.855C783.137 334.855 781.752 335.239 780.559 336.006C779.366 336.759 778.435 337.753 777.768 338.989C777.114 340.21 776.78 341.553 776.766 343.016V347.554C776.766 349.457 777.114 351.091 777.81 352.455C778.506 353.804 779.479 354.841 780.729 355.565C781.979 356.276 783.442 356.631 785.118 356.631C786.241 356.631 787.256 356.474 788.165 356.162C789.074 355.835 789.863 355.359 790.53 354.734C791.198 354.109 791.702 353.335 792.043 352.412L799.245 353.222C798.79 355.125 797.924 356.787 796.645 358.207C795.381 359.614 793.762 360.707 791.787 361.489C789.813 362.256 787.554 362.639 785.012 362.639Z" fill="#003462"/>
</svg>
